<svg xmlns="http://www.w3.org/2000/svg" width="3134" height="3227" viewBox="0 0 3134 3227" version="1.1"><path d="M 756.776 1514.726 C 646.336 1656.503, 577.648 1823.845, 555.535 2005 C 548.986 2058.651, 547.510 2084.705, 547.523 2146.500 C 547.536 2210.020, 549.562 2244.917, 556.553 2302 C 561.845 2345.212, 572.071 2406.105, 575.893 2417.167 C 588.004 2452.215, 616.848 2485.365, 661 2514.980 C 683.389 2529.998, 716.673 2548.032, 750.500 2563.475 C 773.242 2573.857, 835.378 2600.956, 835.701 2600.632 C 835.857 2600.476, 831.666 2590.257, 826.387 2577.924 C 741.489 2379.579, 698.262 2204.964, 689.011 2023 C 687.721 1997.637, 687.722 1928.910, 689.011 1902.897 C 695.271 1776.656, 718.319 1654.813, 759.567 1529.901 C 764.846 1513.913, 768.968 1500.634, 768.725 1500.392 C 768.483 1500.150, 763.106 1506.600, 756.776 1514.726" stroke="none" fill="#000000" fill-rule="evenodd"/><path d="M 854.235 1402.692 C 853.144 1404.237, 848.207 1412.025, 843.265 1420 C 771.917 1535.124, 728.922 1662.781, 715.109 1800.500 C 710.955 1841.923, 710.509 1852.419, 710.505 1909 C 710.499 1975.578, 712.461 2008.638, 720.061 2070 C 750.455 2315.423, 845.944 2607.562, 1026.492 3007.500 C 1054.642 3069.854, 1112.268 3193.569, 1114.003 3195.371 C 1114.464 3195.849, 1115.112 3194.049, 1115.444 3191.371 C 1118.323 3168.093, 1121.699 3154.011, 1128.479 3137 C 1155.723 3068.643, 1225.551 3004.367, 1354.338 2929.099 C 1405.214 2899.365, 1449.262 2875.986, 1537 2832.147 C 1607.718 2796.812, 1625.603 2788.119, 1775 2716.467 C 1885.690 2663.379, 1918.672 2647.456, 1980.500 2617.256 C 2086.032 2565.709, 2277.897 2468.563, 2276.644 2467.311 C 2276.387 2467.054, 2271.074 2468.723, 2264.838 2471.020 C 2250.895 2476.156, 2227.347 2482.227, 2212 2484.642 C 2194.756 2487.356, 2159.824 2487.094, 2143.500 2484.129 C 2110.654 2478.162, 2088.673 2470.502, 2040.500 2448.232 C 1961.599 2411.758, 1939.689 2403.106, 1903.238 2394.033 C 1860.164 2383.311, 1826.361 2380.518, 1769.130 2382.952 C 1679.902 2386.748, 1587.898 2372.766, 1495.965 2341.439 C 1299.533 2274.502, 1111.969 2125.981, 983.814 1935.895 C 903.025 1816.065, 853.155 1690.174, 840.456 1574 C 838.265 1553.961, 837.458 1511.221, 838.908 1492 C 841.050 1463.591, 846.544 1433.204, 853.503 1411.276 C 855.372 1405.386, 856.748 1400.414, 856.560 1400.226 C 856.372 1400.039, 855.326 1401.148, 854.235 1402.692" stroke="none" fill="#333333" fill-rule="evenodd"/><path d="M 893.360 303.805 C 816.799 360.789, 772.915 416.619, 757.440 476.724 C 743.989 528.971, 751.300 584.261, 779.493 643.500 C 783.521 651.964, 786.988 657.267, 794.527 666.500 C 896.134 790.930, 957.193 936.721, 967.077 1078.500 C 968.583 1100.097, 967.714 1151.645, 965.552 1169 C 961.949 1197.922, 956.910 1221.318, 949.885 1241.742 C 944.922 1256.169, 940.434 1265.801, 931.193 1281.860 C 921.604 1298.523, 910.564 1321.277, 903.134 1339.694 C 856.956 1454.158, 856.562 1581.769, 901.974 1715.402 C 967.546 1908.362, 1125.719 2097.771, 1343 2243.522 C 1382.310 2269.891, 1416.185 2287.824, 1459.500 2305.197 C 1585.641 2355.790, 1740.433 2370.696, 1908.500 2348.433 C 2180.887 2312.352, 2469.304 2180.431, 2667 2001.495 C 2673.875 1995.273, 2681.075 1988.525, 2683 1986.501 L 2686.500 1982.821 2680 1983.408 C 2635.262 1987.450, 2494.531 1988.363, 2427 1985.049 C 2119.746 1969.970, 1873.089 1896.333, 1613.500 1742.185 C 1556.856 1708.550, 1467.315 1650.169, 1439.500 1628.738 C 1291.500 1514.707, 1176.125 1347.787, 1120.683 1167.484 C 1105.312 1117.497, 1095.553 1072.961, 1088.525 1020.731 C 1086.302 1004.208, 1086 998.403, 1086 972.217 C 1086 922.316, 1088.525 879.025, 1095.491 809.500 C 1101.678 747.753, 1102.293 725.625, 1098.449 703 C 1092.038 665.260, 1069.402 630.610, 1028 595.160 C 977.939 552.295, 935.368 509.335, 910.271 476.353 C 888.793 448.128, 872.835 417.311, 867.365 393.500 C 864.587 381.403, 864.808 360.096, 867.823 349.568 C 872.924 331.752, 885.292 313.604, 901.758 299.775 C 906.850 295.499, 910.612 292, 910.118 292 C 909.624 292, 902.083 297.312, 893.360 303.805" stroke="none" fill="#555555" fill-rule="evenodd"/><path d="M 1378.500 1.651 C 1376.300 1.824, 1368.200 2.453, 1360.500 3.049 C 1293.885 8.204, 1225.935 26.462, 1171.142 53.929 C 1107.782 85.690, 1058.408 130.495, 1036.609 176.012 C 1029.634 190.575, 1027.018 199.872, 1026.296 212.666 C 1025.518 226.435, 1026.146 227.742, 1030.461 221.334 C 1034.699 215.041, 1038.659 211.678, 1044.419 209.478 C 1081.125 195.460, 1130.072 311.857, 1144.942 448.525 C 1148.316 479.534, 1149.289 497.537, 1149.294 529 C 1149.302 581.389, 1145.272 615.776, 1134 659.500 C 1120.141 713.257, 1109.657 779.869, 1104.334 848 C 1102.175 875.628, 1101.852 954.621, 1103.798 979 C 1108.333 1035.798, 1115.190 1080.109, 1126.582 1126.234 C 1171.761 1309.158, 1277.259 1464.917, 1442.500 1592.659 C 1535.771 1664.763, 1653.995 1729.548, 1783.500 1779.522 C 1992.897 1860.324, 2241.574 1909.081, 2512.500 1922.452 C 2572.158 1925.396, 2621.995 1926.277, 2693.500 1925.651 C 2732 1925.314, 2773.175 1924.602, 2785 1924.069 C 2796.825 1923.536, 2813.168 1922.794, 2821.319 1922.419 C 2829.469 1922.044, 2835.769 1921.399, 2835.319 1920.985 C 2834.868 1920.572, 2820.775 1915.407, 2804 1909.509 C 2496.370 1801.338, 2247.304 1692.936, 2068 1589.176 C 1830.715 1451.864, 1693.973 1314.011, 1652.111 1169.911 C 1645.980 1148.804, 1644.259 1138.036, 1643.577 1116.500 C 1636.352 888.312, 1615.056 794.233, 1552.918 716 C 1490.336 637.206, 1448.051 573.073, 1414.660 506.304 C 1348.506 374.020, 1334.059 256.857, 1368.504 132 C 1377.338 99.978, 1392.207 58.990, 1409.496 19 C 1413.182 10.475, 1416.426 2.938, 1416.706 2.250 C 1417.102 1.275, 1413.399 1.037, 1399.857 1.168 C 1390.311 1.261, 1380.700 1.478, 1378.500 1.651" stroke="none" fill="#777777" fill-rule="evenodd"/><path d="M 1434.126 2.111 C 1433.614 3.425, 1428.918 15.075, 1423.690 28 C 1394.337 100.569, 1381.003 150.806, 1375.914 208 C 1373.458 235.605, 1374.541 276.638, 1378.539 307.500 C 1393.621 423.926, 1454.095 552.176, 1559.845 692 C 1582.788 722.335, 1586.864 727.151, 1601.528 741.244 C 1632.750 771.254, 1649.911 800.814, 1658.347 839.117 C 1662.586 858.362, 1663.485 867.968, 1663.437 893.500 C 1663.390 918.903, 1661.960 934.905, 1657.540 959.500 C 1651.980 990.438, 1653.958 1052.980, 1662.038 1101.684 C 1671.403 1158.142, 1689.384 1206.216, 1716.657 1247.716 C 1739.799 1282.931, 1774.870 1316.864, 1812.500 1340.448 C 1880.780 1383.242, 1972.727 1407.556, 2090.500 1413.962 C 2114.700 1415.278, 2188.110 1415.300, 2215.500 1414 C 2271.303 1411.349, 2325.478 1406.457, 2388 1398.420 C 2421.824 1394.073, 2481.837 1385.206, 2484.348 1384.185 C 2485.719 1383.627, 2471.150 1376.015, 2427.848 1354.663 C 2363.779 1323.071, 2316.987 1299.093, 2287 1282.487 C 2160.620 1212.498, 2076.724 1142.039, 2011.816 1051.378 C 1969.244 991.915, 1934.443 921.738, 1908.483 843 C 1895.582 803.869, 1866.074 755.055, 1835.037 721.500 C 1800.749 684.429, 1754.580 653.752, 1699.500 631.439 C 1668.166 618.745, 1622.173 584.623, 1585.500 546.862 C 1499.882 458.703, 1446.214 340.052, 1431.078 205.463 C 1427.539 173.996, 1426.734 154.382, 1427.275 112.799 C 1427.805 72.069, 1429.026 53.782, 1433.533 19.047 C 1434.850 8.898, 1435.732 0.398, 1435.492 0.159 C 1435.252 -0.081, 1434.637 0.798, 1434.126 2.111" stroke="none" fill="#999999" fill-rule="evenodd"/><path d="M 1593 228.587 C 1556.877 229.846, 1501.411 233.256, 1500.387 234.280 C 1500.158 234.508, 1510.216 235.002, 1522.736 235.377 C 1673.261 239.885, 1815.861 264.870, 1954 310.937 C 2148.565 375.822, 2323.012 477.799, 2477.500 616.961 C 2497.346 634.838, 2547.227 684.198, 2566.975 705.500 C 2694.117 842.652, 2792.228 998.242, 2860.508 1171 C 2946.040 1387.407, 2978.734 1621.345, 2955.961 1854 C 2917.930 2242.532, 2731.667 2595.152, 2432.462 2845.049 C 2298.377 2957.037, 2143.791 3045.240, 1978.902 3103.838 C 1842.284 3152.390, 1699.175 3180.229, 1551.500 3186.981 C 1522.888 3188.289, 1453.383 3188.281, 1424.332 3186.967 C 1347.021 3183.468, 1264.861 3173.408, 1192.112 3158.533 C 1167.726 3153.546, 1174.518 3156.252, 1217.500 3168.645 C 1329.906 3201.056, 1446.148 3220.102, 1567.454 3225.984 C 1594.532 3227.297, 1676.576 3227.293, 1703.546 3225.978 C 1766.088 3222.928, 1823.224 3216.852, 1882.370 3206.960 C 2134.106 3164.861, 2371.994 3058.176, 2572.500 2897.459 C 2649.268 2835.926, 2722.177 2764.533, 2785.386 2689 C 2969.105 2469.463, 3084.340 2205.872, 3121.447 1920.289 C 3127.321 1875.086, 3132.551 1810.917, 3133.198 1776.139 L 3133.395 1765.500 3134 1776.500 C 3134.382 1783.449, 3134.680 1774.796, 3134.808 1753 C 3134.998 1720.813, 3134.665 1708.817, 3131.951 1650 C 3121.590 1425.494, 3054.758 1194.341, 2942.722 995.500 C 2781.444 709.268, 2533.454 484.268, 2236 354.296 C 2068.421 281.073, 1894.183 240.253, 1705.500 230.013 C 1686.030 228.957, 1610.038 227.994, 1593 228.587 M 690.500 506.874 C 565.077 572.094, 445.661 670.513, 342.633 793.576 C 247.434 907.288, 167.967 1040.617, 110.528 1183 C 47.182 1340.026, 10.547 1505.348, 1.944 1673 C 0.283 1705.367, 1.240 1824.850, 3.374 1851.500 C 7.114 1898.220, 10.026 1924.828, 16.071 1967.500 C 71.227 2356.860, 228.030 2639.540, 503.864 2846.878 C 609.413 2926.216, 732.104 2995.288, 881.807 3059.649 C 912.577 3072.877, 970.135 3096.122, 971.224 3095.759 C 971.670 3095.610, 969.440 3093.948, 966.268 3092.066 C 928.125 3069.435, 863.045 3028.838, 823.053 3002.730 C 597.138 2855.245, 439.152 2709.765, 323.259 2542.500 C 272.033 2468.567, 225.770 2382.889, 191.330 2298.169 C 132.016 2152.261, 96.470 1988.827, 85.809 1813 C 84.137 1785.431, 84.142 1688.006, 85.817 1659.500 C 94.453 1512.498, 119.320 1382.552, 164.949 1246 C 224.598 1067.488, 313.664 903.315, 428.705 759.824 C 507.380 661.693, 603.959 570.394, 694.500 508.560 C 714.711 494.757, 714.209 494.545, 690.500 506.874" stroke="none" fill="#fc5c04" fill-rule="evenodd"/></svg>